<svg xmlns="http://www.w3.org/2000/svg" xml:space="preserve" style="fill-rule:evenodd;clip-rule:evenodd;stroke-miterlimit:2" viewBox="0 0 405 144"><path d="M.131-.561c-.031 0-.05.016-.06.043L.069-.555H.024v.718h.054v-.184a.056.056 0 0 0 .051.027C.167.006.19-.018.19-.071v-.413c0-.053-.022-.077-.059-.077Zm.005.481c0 .024-.008.035-.025.035-.024 0-.033-.018-.033-.049v-.367c0-.031.009-.049.033-.049.017 0 .025.011.025.035v.395Z" style="fill:#f3f4f6;fill-rule:nonzero" transform="matrix(144 0 0 144 267.544 110.32)"/><path d="M.089.006c.025 0 .044-.013.056-.036L.147 0h.042v-.483c0-.051-.026-.078-.083-.078-.057 0-.083.027-.083.078v.103h.054v-.102c0-.022.011-.031.029-.031.018 0 .029.009.029.031v.161L.11-.329C.055-.347.023-.328.023-.262v.185c0 .062.025.083.066.083Zm.016-.051c-.017 0-.028-.009-.028-.04v-.169c0-.028.014-.034.036-.027l.022.007v.185c0 .03-.011.044-.03.044Z" style="fill:#f3f4f6;fill-rule:nonzero" transform="matrix(144 0 0 144 298.36 110.32)"/><path d="M.069-.555H.024V0h.054v-.441l.06-.051V-.56l-.066.059-.003-.054Z" style="fill:#f3f4f6;fill-rule:nonzero" transform="matrix(144 0 0 144 329.032 110.32)"/><path d="M.151-.555H.102v-.092H.048v.092H.012v.051h.036v.434c0 .05.017.07.067.07h.036v-.047H.13c-.02 0-.028-.008-.028-.031v-.426h.049v-.051Z" style="fill:#f3f4f6;fill-rule:nonzero" transform="matrix(144 0 0 144 351.496 110.32)"/><path d="M.112-.124H.108L.067-.555H.012l.075.608-.002.026C.083.104.076.112.053.112H.029v.051H.07C.11.163.127.148.133.087l.065-.642H.143l-.031.431Z" style="fill:#f3f4f6;fill-rule:nonzero" transform="matrix(144 0 0 144 375.832 110.32)"/><path d="M.131-.561c-.031 0-.05.016-.06.043L.069-.555H.024v.718h.054v-.184a.056.056 0 0 0 .051.027C.167.006.19-.018.19-.071v-.413c0-.053-.022-.077-.059-.077Zm.005.481c0 .024-.008.035-.025.035-.024 0-.033-.018-.033-.049v-.367c0-.031.009-.049.033-.049.017 0 .025.011.025.035v.395Z" style="fill:#f3f4f6;fill-rule:nonzero" transform="matrix(144 0 0 144 -3.456 110.32)"/><path d="M.107.006C.164.006.19-.021.19-.072v-.411c0-.051-.026-.078-.083-.078-.057 0-.083.027-.083.078v.411c0 .051.026.078.083.078Zm0-.048c-.018 0-.029-.009-.029-.031v-.409c0-.022.011-.031.029-.031.018 0 .029.009.029.031v.409c0 .022-.011.031-.029.031Z" style="fill:#f3f4f6;fill-rule:nonzero" transform="matrix(144 0 0 144 27.36 110.32)"/><path d="M.08-.601v-.103H.024v.103H.08ZM.079 0v-.555H.025V0h.054Z" style="fill:#f3f4f6;fill-rule:nonzero" transform="matrix(144 0 0 144 58.176 110.32)"/><path d="M.131-.561a.06.06 0 0 0-.06.041L.069-.555H.024V0h.054v-.459c0-.031.009-.051.033-.051.017 0 .025.011.025.035V0H.19v-.483c0-.053-.019-.078-.059-.078Z" style="fill:#f3f4f6;fill-rule:nonzero" transform="matrix(144 0 0 144 73.152 110.32)"/><path d="M.151-.555H.102v-.092H.048v.092H.012v.051h.036v.434c0 .05.017.07.067.07h.036v-.047H.13c-.02 0-.028-.008-.028-.031v-.426h.049v-.051Z" style="fill:#f3f4f6;fill-rule:nonzero" transform="matrix(144 0 0 144 102.96 110.32)"/><path d="M.08-.601v-.103H.024v.103H.08ZM.079 0v-.555H.025V0h.054Z" style="fill:#f3f4f6;fill-rule:nonzero" transform="matrix(144 0 0 144 126.432 110.32)"/><path d="M.131-.561a.06.06 0 0 0-.06.041L.069-.555H.024V0h.054v-.459c0-.031.009-.051.033-.051.017 0 .025.011.025.035V0H.19v-.483c0-.053-.019-.078-.059-.078Z" style="fill:#f3f4f6;fill-rule:nonzero" transform="matrix(144 0 0 144 141.408 110.32)"/><path d="M.206-.555H.107c-.057 0-.083.027-.083.078v.298c0 .03.009.051.027.064a.053.053 0 0 0-.035.053v.003c0 .026.01.045.032.054C.027.003.017.019.017.047v.042c0 .055.033.08.093.08.061 0 .091-.025.091-.08V.032c0-.061-.023-.081-.073-.081H.1c-.021 0-.031-.006-.031-.025v-.001c0-.016.007-.026.038-.026.057 0 .083-.027.083-.078v-.29a.148.148 0 0 0-.005-.039h.021v-.047Zm-.07.377c0 .022-.011.031-.029.031-.018 0-.029-.009-.029-.031v-.3c0-.022.011-.031.029-.031.018 0 .029.009.029.031v.3ZM.118.001c.019 0 .029.013.029.034v.052C.147.11.136.121.11.121S.071.11.071.087V.035c0-.021.011-.034.034-.034h.013Z" style="fill:#f3f4f6;fill-rule:nonzero" transform="matrix(144 0 0 144 172.08 110.32)"/><path d="M316 336h-14c-6.6 0-12-5.4-12-12v-16h12v-8h-6c-1.1 0-2-.9-2-2v-8c0-1.1.9-2 2-2s2 .9 2 2v4c0 1.1.9 2 2 2h2v-20c0-2.2 1.8-4 4-4h6c2.2 0 4 1.8 4 4v14h2c1.1 0 2-.9 2-2v-8c0-1.1.9-2 2-2s2 .9 2 2v12c0 1.1-.9 2-2 2h-6v14h12v16c0 6.6-5.4 12-12 12Z" style="fill:#1f2937;stroke:#1f2937;stroke-width:4.07px" transform="translate(-371.66 -525.332) scale(1.96425)"/><path d="M296 324v-16h-6v16c0 6.6 5.4 12 12 12h6c-6.6 0-12-5.4-12-12Z" style="fill:#2563eb;fill-rule:nonzero" transform="translate(-371.66 -525.332) scale(1.96425)"/><path d="M328 324v-16h-32v16c0 6.6 5.4 12 12 12h8c6.6 0 12-5.4 12-12Z" style="fill:#3b82f6;fill-rule:nonzero" transform="translate(-371.66 -525.332) scale(1.96425)"/><path d="M312 272h-6c-2.2 0-4 1.8-4 4v32h14v-32c0-2.2-1.8-4-4-4Z" style="fill:#47bd9c;fill-rule:nonzero" transform="translate(-371.66 -525.332) scale(1.96425)"/><path d="M310 272h-4c-2.2 0-4 1.8-4 4v32h4v-32c0-2.2 1.8-4 4-4Z" style="fill:#3ca59a;fill-rule:nonzero" transform="translate(-371.66 -525.332) scale(1.96425)"/><path d="M300 296c-1.1 0-2-.9-2-2v-4c0-1.1-.9-2-2-2s-2 .9-2 2v8c0 1.1.9 2 2 2h6c1.1 0 2-.9 2-2s-.9-2-2-2h-2Z" style="fill:#3ca59a;fill-rule:nonzero" transform="translate(-371.66 -525.332) scale(1.96425)"/><path d="M318 290c1.1 0 2-.9 2-2v-8c0-1.1.9-2 2-2s2 .9 2 2v12c0 1.1-.9 2-2 2h-6c-1.1 0-2-.9-2-2s.9-2 2-2h2Z" style="fill:#47bd9c;fill-rule:nonzero" transform="translate(-371.66 -525.332) scale(1.96425)"/></svg>