<?xml version="1.0" encoding="UTF-8" standalone="no"?><!DOCTYPE svg PUBLIC "-//W3C//DTD SVG 1.1//EN" "http://www.w3.org/Graphics/SVG/1.1/DTD/svg11.dtd"><svg width="100%" height="100%" viewBox="0 0 32 32" version="1.1" xmlns="http://www.w3.org/2000/svg" xmlns:xlink="http://www.w3.org/1999/xlink" xml:space="preserve" xmlns:serif="http://www.serif.com/" style="fill-rule:evenodd;clip-rule:evenodd;stroke-linejoin:round;stroke-miterlimit:2;"><g id="cactus"><path d="M9.5,26.144l0,-8l-3,-0l0,8c0,3.3 2.7,6 6,6l3,-0c-3.3,-0 -6,-2.7 -6,-6Z" style="fill:#2563eb;fill-rule:nonzero;"/><path d="M10,26.144l0,-8l-3,-0l0,8c0,3.3 2.7,6 6,6l3,-0c-3.3,-0 -6,-2.7 -6,-6Z" style="fill:#2563eb;fill-rule:nonzero;"/><path d="M25.5,26.144l0,-8l-16,-0l0,8c0,3.3 2.7,6 6,6l4,-0c3.3,-0 6,-2.7 6,-6Z" style="fill:#3b82f6;fill-rule:nonzero;"/><path d="M17.5,0.144l-3,-0c-1.1,-0 -2,0.9 -2,2l0,16l7,-0l0,-16c0,-1.1 -0.9,-2 -2,-2Z" style="fill:#47bd9c;fill-rule:nonzero;"/><path d="M16.5,0.144l-2,-0c-1.1,-0 -2,0.9 -2,2l0,16l2,-0l0,-16c0,-1.1 0.9,-2 2,-2Z" style="fill:#3ca59a;fill-rule:nonzero;"/><path d="M17,0.144l-2,-0c-1.1,-0 -2,0.9 -2,2l0,16l2,-0l0,-16c0,-1.1 0.9,-2 2,-2Z" style="fill:#3ca59a;fill-rule:nonzero;"/><path d="M11.5,12.144c-0.55,-0 -1,-0.45 -1,-1l0,-2c0,-0.55 -0.45,-1 -1,-1c-0.55,-0 -1,0.45 -1,1l0,4c0,0.55 0.45,1 1,1l3,-0c0.55,-0 1,-0.45 1,-1c0,-0.55 -0.45,-1 -1,-1l-1,-0Z" style="fill:#3ca59a;fill-rule:nonzero;"/><path d="M20.5,9.144c0.55,-0 1,-0.45 1,-1l0,-4c0,-0.55 0.45,-1 1,-1c0.55,-0 1,0.45 1,1l0,6c0,0.55 -0.45,1 -1,1l-3,-0c-0.55,-0 -1,-0.45 -1,-1c0,-0.55 0.45,-1 1,-1l1,-0Z" style="fill:#47bd9c;fill-rule:nonzero;"/></g></svg>