<?xml version="1.0" encoding="UTF-8" standalone="no"?><!DOCTYPE svg PUBLIC "-//W3C//DTD SVG 1.1//EN" "http://www.w3.org/Graphics/SVG/1.1/DTD/svg11.dtd">
<svg width="100%" height="100%" viewBox="0 0 1955 524" version="1.1" xmlns="http://www.w3.org/2000/svg"
     xml:space="preserve"
     style="fill-rule:evenodd;clip-rule:evenodd;stroke-linejoin:round;stroke-miterlimit:2;"><path d="M1390.84,85.8c-21.39,0 -34.5,9.6 -41.4,25.8l-1.38,-22.2l-31.05,0l0,430.8l37.26,0l0,-110.4c7.59,10.8 19.32,16.2 35.19,16.2c26.22,0 42.09,-14.4 42.09,-46.2l0,-247.8c0,-31.8 -15.18,-46.2 -40.71,-46.2Zm3.45,288.6c0,14.4 -5.52,21 -17.25,21c-16.56,0 -22.77,-10.8 -22.77,-29.4l0,-220.2c0,-18.6 6.21,-29.4 22.77,-29.4c11.73,0 17.25,6.6 17.25,21l0,237Z" style="fill-rule:nonzero;"/><path d="M1509.52,426c17.25,0 30.36,-7.8 38.64,-21.6l1.38,18l28.98,0l0,-289.8c0,-30.6 -17.94,-46.8 -57.27,-46.8c-39.33,0 -57.27,16.2 -57.27,46.8l-0,61.8l37.26,0l0,-61.2c0,-13.2 7.59,-18.6 20.01,-18.6c12.42,0 20.01,5.4 20.01,18.6l0,96.6l-17.25,-4.8c-37.95,-10.8 -60.03,0.6 -60.03,40.2l-0,111c-0,37.2 17.25,49.8 45.54,49.8Zm11.04,-30.6c-11.73,0 -19.32,-5.4 -19.32,-24l0,-101.4c0,-16.8 9.66,-20.4 24.84,-16.2l15.18,4.2l0,111c0,18 -7.59,26.4 -20.7,26.4Z" style="fill-rule:nonzero;"/><path d="M1642.69,89.4l-31.05,0l-0,333l37.26,0l-0,-264.6l41.4,-30.6l-0,-40.8l-45.54,35.4l-2.07,-32.4Z" style="fill-rule:nonzero;"/><path d="M1806.37,89.4l-33.81,0l0,-55.2l-37.26,0l0,55.2l-24.84,0l0,30.6l24.84,0l0,260.4c0,30 11.73,42 46.23,42l24.84,0l0,-28.2l-14.49,0c-13.8,0 -19.32,-4.8 -19.32,-18.6l0,-255.6l33.81,0l0,-30.6Z" style="fill-rule:nonzero;"/><path d="M1895.53,348l-2.76,0l-28.29,-258.6l-37.95,0l51.75,364.8l-1.38,15.6c-1.38,15 -6.21,19.8 -22.08,19.8l-16.56,0l0,30.6l28.29,0c27.6,0 39.33,-9 43.47,-45.6l44.85,-385.2l-37.95,0l-21.39,258.6Z" style="fill-rule:nonzero;"/><path d="M73.83,85.8c-21.39,0 -34.5,9.6 -41.4,25.8l-1.38,-22.2l-31.05,0l0,430.8l37.26,0l0,-110.4c7.59,10.8 19.32,16.2 35.19,16.2c26.22,0 42.09,-14.4 42.09,-46.2l0,-247.8c0,-31.8 -15.18,-46.2 -40.71,-46.2Zm3.45,288.6c0,14.4 -5.52,21 -17.25,21c-16.56,0 -22.77,-10.8 -22.77,-29.4l0,-220.2c0,-18.6 6.21,-29.4 22.77,-29.4c11.73,0 17.25,6.6 17.25,21l0,237Z" style="fill-rule:nonzero;"/><path d="M204.93,426c39.33,0 57.27,-16.2 57.27,-46.8l0,-246.6c0,-30.6 -17.94,-46.8 -57.27,-46.8c-39.33,0 -57.27,16.2 -57.27,46.8l0,246.6c0,30.6 17.94,46.8 57.27,46.8Zm0,-28.8c-12.42,0 -20.01,-5.4 -20.01,-18.6l0,-245.4c0,-13.2 7.59,-18.6 20.01,-18.6c12.42,0 20.01,5.4 20.01,18.6l0,245.4c0,13.2 -7.59,18.6 -20.01,18.6Z" style="fill-rule:nonzero;"/><path d="M333.96,61.8l0,-61.8l-38.64,0l0,61.8l38.64,0Zm-0.69,360.6l0,-333l-37.26,0l0,333l37.26,0Z" style="fill-rule:nonzero;"/><path d="M440.91,85.8c-16.56,0 -33.81,6.6 -41.4,24.6l-1.38,-21l-31.05,0l-0,333l37.26,0l-0,-275.4c-0,-18.6 6.21,-30.6 22.77,-30.6c11.73,0 17.25,6.6 17.25,21l0,285l37.26,0l0,-289.8c0,-31.8 -13.11,-46.8 -40.71,-46.8Z" style="fill-rule:nonzero;"/><path d="M598.08,89.4l-33.81,0l0,-55.2l-37.26,0l0,55.2l-24.84,0l0,30.6l24.84,0l0,260.4c0,30 11.73,42 46.23,42l24.84,0l0,-28.2l-14.49,0c-13.8,0 -19.32,-4.8 -19.32,-18.6l0,-255.6l33.81,0l0,-30.6Z" style="fill-rule:nonzero;"/><path d="M661.56,61.8l0,-61.8l-38.64,0l0,61.8l38.64,0Zm-0.69,360.6l0,-333l-37.26,0l0,333l37.26,0Z" style="fill-rule:nonzero;"/><path d="M768.51,85.8c-16.56,0 -33.81,6.6 -41.4,24.6l-1.38,-21l-31.05,0l0,333l37.26,0l0,-275.4c0,-18.6 6.21,-30.6 22.77,-30.6c11.73,0 17.25,6.6 17.25,21l0,285l37.26,0l0,-289.8c0,-31.8 -13.11,-46.8 -40.71,-46.8Z" style="fill-rule:nonzero;"/><path d="M967.23,89.4l-68.31,0c-39.33,0 -57.27,16.2 -57.27,46.8l0,178.8c0,18 6.21,30.6 18.63,38.4c-15.18,5.4 -24.15,15.6 -24.15,31.8l-0,1.8c-0,15.6 6.9,27 22.08,32.4c-14.49,4.8 -21.39,14.4 -21.39,31.2l-0,25.2c-0,33 22.77,48 64.17,48c42.09,0 62.79,-15 62.79,-48l0,-34.2c0,-36.6 -15.87,-48.6 -50.37,-48.6l-19.32,0c-14.49,0 -21.39,-3.6 -21.39,-15l0,-0.6c0,-9.6 4.83,-15.6 26.22,-15.6c39.33,0 57.27,-16.2 57.27,-46.8l0,-174c0,-9 -1.38,-16.8 -3.45,-23.4l14.49,0l0,-28.2Zm-48.3,226.2c0,13.2 -7.59,18.6 -20.01,18.6c-12.42,0 -20.01,-5.4 -20.01,-18.6l0,-180c0,-13.2 7.59,-18.6 20.01,-18.6c12.42,0 20.01,5.4 20.01,18.6l0,180Zm-12.42,107.4c13.11,0 20.01,7.8 20.01,20.4l-0,31.2c-0,13.8 -7.59,20.4 -25.53,20.4c-17.94,0 -26.91,-6.6 -26.91,-20.4l-0,-31.2c-0,-12.6 7.59,-20.4 23.46,-20.4l8.97,0Z" style="fill-rule:nonzero;"/><g id="cactus"><path d="M1030.51,425.588l-0,-130.95l-49.107,-0l0,130.95c0,54.016 44.196,98.212 98.213,98.212l49.106,0c-54.017,0 -98.212,-44.196 -98.212,-98.212Z" style="fill:#2563eb;fill-rule:nonzero;"/><path d="M1292.41,425.588l-0,-130.95l-261.9,-0l-0,130.95c-0,54.016 44.195,98.212 98.212,98.212l65.475,0c54.017,0 98.213,-44.196 98.213,-98.212Z" style="fill:#3b82f6;fill-rule:nonzero;"/><path d="M1161.46,0l-49.107,0c-18.005,0 -32.737,14.732 -32.737,32.738l-0,261.9l114.581,-0l0,-261.9c0,-18.006 -14.732,-32.738 -32.737,-32.738Z" style="fill:#47bd9c;fill-rule:nonzero;"/><path d="M1145.09,0l-32.738,0c-18.005,0 -32.737,14.732 -32.737,32.738l-0,261.9l32.737,-0l0,-261.9c0,-18.006 14.732,-32.738 32.738,-32.738Z" style="fill:#3ca59a;fill-rule:nonzero;"/><path d="M1063.25,196.425c-9.003,0 -16.369,-7.366 -16.369,-16.369l0,-32.737c0,-9.003 -7.366,-16.369 -16.368,-16.369c-9.003,0 -16.369,7.366 -16.369,16.369l-0,65.475c-0,9.003 7.366,16.369 16.369,16.369l49.106,-0c9.003,-0 16.369,-7.366 16.369,-16.369c-0,-9.003 -7.366,-16.369 -16.369,-16.369l-16.369,0Z" style="fill:#3ca59a;fill-rule:nonzero;"/><path d="M1210.57,147.319c9.003,-0 16.369,-7.366 16.369,-16.369l-0,-65.475c-0,-9.003 7.366,-16.369 16.368,-16.369c9.003,0 16.369,7.366 16.369,16.369l0,98.213c0,9.002 -7.366,16.368 -16.369,16.368l-49.106,0c-9.003,0 -16.369,-7.366 -16.369,-16.368c0,-9.003 7.366,-16.369 16.369,-16.369l16.369,-0Z" style="fill:#47bd9c;fill-rule:nonzero;"/></g></svg>
